<svg id="Capa_1" data-name="Capa 1" xmlns="http://www.w3.org/2000/svg" viewBox="0 0 405.83 204.42"
style="fill:#ffffff"><circle cx="310.92" cy="57.8" r="47.41"
style="fill:#ffffff"/><path d="M428.52,215.89,381.45,135.1c-3.49-6-10.59-10.24-15.94-10.24H303.4c-5.34,0-12.44,4.24-15.94,10.24L240.4,215.89Z" transform="translate(-22.68 -11.47)"/><path d="M71,215.89l.1-.16v.16H224.59l-53.12-91.18a20.88,20.88,0,0,0-18.1-10.35l-.4,0H94.3l-.4,0a20.84,20.84,0,0,0-18.09,10.35L22.68,215.89Z" transform="translate(-22.68 -11.47)"/><path d="M49.54,105.34l11.74-1A11.4,11.4,0,0,0,71.46,90.74c-2-10.15-2.71-24.25,5.72-33,0,.36,0,.73,0,1.1a47.41,47.41,0,0,0,94.82,0c0-.37,0-.74,0-1.1,8.43,8.71,7.74,22.81,5.72,33a11.4,11.4,0,0,0,10.18,13.56l11.74,1a11.4,11.4,0,0,0,12.36-10.15c1.62-15,1.34-37.59-7.17-46.55-12.55-13.22-28.07-13.35-38.1-11.53a47.4,47.4,0,0,0-84.22,0c-10-1.82-25.55-1.69-38.1,11.53-8.5,9-8.78,31.52-7.17,46.55A11.4,11.4,0,0,0,49.54,105.34Z" transform="translate(-22.68 -11.47)"
style="fill:#ffffff"/></svg>
