<svg id="Capa_1" data-name="Capa 1" xmlns="http://www.w3.org/2000/svg" viewBox="0 0 201.91 204.47"><path d="M48.32,204.42l.1-.16v.16H201.91l-53.12-91.18a20.89,20.89,0,0,0-18.1-10.35H71.22a20.84,20.84,0,0,0-18.09,10.35L0,204.42Z" transform="translate(0 0.05)"/><path d="M26.86,93.87l11.74-1A11.4,11.4,0,0,0,49,80.52c0-.42-.1-.84-.18-1.25-2-10.15-2.71-24.25,5.72-33v1.1a47.41,47.41,0,0,0,94.82,0v-1.1c8.43,8.71,7.74,22.81,5.72,33a11.4,11.4,0,0,0,9,13.39c.4.08.8.13,1.2.17l11.74,1a11.4,11.4,0,0,0,12.36-10.15c1.62-15,1.34-37.59-7.17-46.55-12.55-13.22-28.07-13.35-38.1-11.53a47.4,47.4,0,0,0-84.22,0c-10-1.82-25.55-1.69-38.1,11.53-8.5,9-8.78,31.52-7.17,46.55A11.41,11.41,0,0,0,26.86,93.87Z" transform="translate(0 0.05)"/></svg>