<svg id="Capa_1" enable-background="new 0 0 512.004 512.004" height="512" viewBox="0 0 512.004 512.004" width="512" xmlns="http://www.w3.org/2000/svg"><g id="XMLID_492_"><g id="XMLID_273_"><path id="XMLID_274_" d="m429.415 112.86 68.182 33.46c1.417.696 2.919 1.025 4.398 1.025 3.694 0 7.247-2.056 8.984-5.597 2.433-4.958.387-10.95-4.571-13.383l-68.182-33.46c-4.957-2.433-10.95-.386-13.383 4.571-2.433 4.96-.386 10.951 4.572 13.384z"/><path id="XMLID_295_" d="m269.902 412.992c-7.664 7.665-20.136 7.665-27.8 0-3.905-3.905-10.237-3.905-14.143 0-3.905 3.905-3.905 10.237 0 14.143 7.731 7.731 17.887 11.597 28.042 11.597s20.311-3.866 28.042-11.597c3.905-3.905 3.905-10.237 0-14.143-3.904-3.906-10.236-3.906-14.141 0z"/><path id="XMLID_296_" d="m232.882 381.371c0-2.63-1.07-5.21-2.93-7.07s-4.44-2.93-7.08-2.93c-2.63 0-5.2 1.07-7.07 2.93-1.86 1.86-2.92 4.44-2.92 7.07s1.06 5.21 2.92 7.07c1.87 1.86 4.44 2.93 7.07 2.93 2.64 0 5.22-1.07 7.08-2.93 1.86-1.859 2.93-4.44 2.93-7.07z"/><path id="XMLID_297_" d="m289.132 371.371c-2.64 0-5.21 1.07-7.08 2.93-1.86 1.86-2.93 4.44-2.93 7.07s1.07 5.21 2.93 7.07c1.87 1.86 4.44 2.93 7.08 2.93 2.63 0 5.21-1.07 7.07-2.93s2.92-4.44 2.92-7.07-1.06-5.21-2.92-7.07-4.44-2.93-7.07-2.93z"/><path id="XMLID_300_" d="m378.536 351.203v-11.239c0-67.565-54.968-122.533-122.534-122.533s-122.534 54.968-122.534 122.533v11.239c-26.41-6.301-54.601 1.407-74.112 20.917-16.854 16.854-25.111 40.144-22.655 63.897.301 2.913 1.864 5.547 4.276 7.208s5.43 2.181 8.259 1.423l12.831-3.438-3.438 12.832c-.758 2.829-.238 5.848 1.423 8.259 1.661 2.412 4.295 3.975 7.208 4.276 2.755.285 5.5.426 8.233.426 20.833-.001 40.765-8.182 55.664-23.081 6.122-6.122 11.079-13.099 14.81-20.607 19.973 40.627 61.789 68.657 110.034 68.657s90.061-28.03 110.034-68.657c3.731 7.508 8.689 14.486 14.811 20.607 14.9 14.9 34.829 23.082 55.664 23.082 2.731 0 5.48-.141 8.233-.426 2.913-.301 5.547-1.864 7.208-4.276s2.181-5.43 1.423-8.259l-3.438-12.832 12.832 3.438c2.829.758 5.848.238 8.259-1.423 2.412-1.661 3.975-4.295 4.276-7.208 2.456-23.753-5.801-47.043-22.655-63.897-19.51-19.511-47.701-27.219-74.112-20.918zm-20.149-16.751c-33.285-2.314-64.904-16.67-88.569-40.321 10.758-14.614 18.934-31.333 23.801-49.553 36.358 14.388 62.591 48.992 64.768 89.874zm-102.385-97.021c6.274 0 12.418.569 18.384 1.654-14.487 54.806-63.569 94.007-120.786 95.649 2.733-54.117 47.619-97.303 102.402-97.303zm-138.987 192.347c-9.719 9.719-22.31 15.607-35.716 16.935l4.57-17.057c.925-3.451-.062-7.133-2.588-9.66-1.9-1.9-4.454-2.929-7.072-2.929-.863 0-1.732.111-2.588.341l-17.057 4.571c1.327-13.406 7.215-25.998 16.934-35.717 15.306-15.306 37.773-20.89 58.333-14.816 6.073 20.56.49 43.027-14.816 58.332zm138.987 42.192c-56.537 0-102.534-45.997-102.534-102.534v-14.689c40.165-.962 76.909-17.952 103.394-45.294 27.306 26.714 63.588 42.771 101.673 45.048v14.934c.001 56.539-45.996 102.535-102.533 102.535zm182.381-54.562c-3.45-.926-7.133.062-9.659 2.588s-3.513 6.208-2.588 9.659l4.57 17.058c-13.405-1.328-25.999-7.216-35.717-16.935-15.306-15.305-20.889-37.771-14.816-58.333 20.562-6.072 43.027-.489 58.333 14.816 9.72 9.719 15.607 22.311 16.935 35.717z"/><path id="XMLID_305_" d="m393.412 94.051c2.64 0 5.21-1.06 7.08-2.93 1.86-1.86 2.92-4.43 2.92-7.07 0-2.63-1.06-5.21-2.92-7.07-1.87-1.86-4.44-2.93-7.08-2.93-2.63 0-5.2 1.07-7.07 2.93-1.86 1.86-2.92 4.44-2.92 7.07 0 2.64 1.06 5.22 2.92 7.07 1.87 1.87 4.44 2.93 7.07 2.93z"/><path id="XMLID_306_" d="m511.661 223.773c-1.43-5.334-6.912-8.502-12.248-7.071l-29.028 7.778c-23.754 6.366-48.564 3.099-69.863-9.198-14.216-8.208-24.385-21.46-28.634-37.317-.687-2.562-2.362-4.746-4.659-6.072l-48.213-27.836c-6.415-3.704-8.62-11.935-4.917-18.349 1.794-3.107 4.69-5.33 8.156-6.258 3.463-.929 7.084-.453 10.193 1.342l55.889 32.268c4.783 2.762 10.899 1.123 13.66-3.66 2.762-4.783 1.123-10.899-3.66-13.66l-126.215-72.856c-3.775-2.177-6.12-6.236-6.12-10.594 0-4.314 2.1-8.098 5.761-10.379s7.982-2.5 11.856-.6l64.91 31.854c4.957 2.435 10.95.388 13.383-4.571 2.433-4.958.387-10.95-4.571-13.383l-64.91-31.854c-10.056-4.936-21.737-4.345-31.245 1.58-1.886 1.175-3.614 2.526-5.184 4.013-1.57-1.488-3.298-2.838-5.184-4.013-9.507-5.925-21.188-6.516-31.245-1.58l-213.977 105.009c-4.958 2.433-7.004 8.425-4.571 13.383 1.737 3.541 5.29 5.597 8.984 5.597 1.479 0 2.981-.33 4.398-1.025l213.978-105.009c3.873-1.901 8.194-1.682 11.856.6 3.661 2.282 5.761 6.065 5.761 10.379 0 4.357-2.345 8.417-6.12 10.594l-126.215 72.855c-4.783 2.761-6.422 8.877-3.66 13.66 2.76 4.782 8.876 6.421 13.66 3.66l55.889-32.268c3.107-1.793 6.727-2.27 10.193-1.342 3.465.929 6.362 3.151 8.156 6.259 1.794 3.107 2.271 6.727 1.342 10.192s-3.151 6.362-6.259 8.156l-48.213 27.836c-2.297 1.326-3.973 3.51-4.659 6.072-4.249 15.856-14.418 29.109-28.635 37.317-21.298 12.295-46.109 15.562-69.863 9.198l-29.028-7.778c-5.337-1.429-10.818 1.737-12.248 7.071-1.43 5.335 1.736 10.818 7.071 12.248l29.028 7.778c9.655 2.587 19.453 3.867 29.188 3.867 19.418 0 38.585-5.093 55.853-15.063 17.611-10.167 30.536-26.175 36.748-45.384l44.758-25.841c15.965-9.217 21.455-29.705 12.237-45.669-2.353-4.076-5.474-7.532-9.157-10.235l43.805-25.264c2.248-1.297 4.292-2.858 6.127-4.613 1.835 1.755 3.879 3.317 6.127 4.613l43.805 25.264c-3.683 2.704-6.804 6.16-9.157 10.236-9.217 15.964-3.728 36.452 12.237 45.669l44.758 25.842c6.212 19.208 19.138 35.216 36.749 45.383 17.269 9.97 36.432 15.063 55.852 15.063 9.733 0 19.534-1.28 29.188-3.867l29.028-7.778c5.337-1.431 8.504-6.914 7.074-12.249z"/></g></g></svg>